<?xml version="1.0" encoding="utf-8"?>
<!-- Generator: Adobe Illustrator 27.5.0, SVG Export Plug-In . SVG Version: 6.00 Build 0)  -->
<svg version="1.1" xmlns="http://www.w3.org/2000/svg" xmlns:xlink="http://www.w3.org/1999/xlink" x="0px" y="0px"
	 viewBox="0 0 500 500" style="enable-background:new 0 0 500 500;" xml:space="preserve">
<g id="BACKGROUND">
	<rect style="fill:#002A30;" width="500" height="500"/>
</g>
<g id="OBJECTS">
	<g>
		<path style="fill:none;stroke:#FFFFFF;stroke-width:3;stroke-miterlimit:10;" d="M340.906,292.767h11.041
			c4.29,0,7.769-3.478,7.769-7.769v-11.733c0-7.286,5.907-13.193,13.193-13.193h58.177c8.355,0,15.128-6.773,15.128-15.128l0,0
			c0-8.355-6.773-15.129-15.128-15.129h-59.419l0,0c-10.193,0-18.456-8.263-18.456-18.456v-47.407
			c0-11.992-9.721-21.713-21.713-21.713l0,0c-11.992,0-21.713,9.721-21.713,21.713v49.94c0,9.194-7.453,16.647-16.647,16.647
			H111.803c-8.977,0-16.254,7.277-16.254,16.254l0,0c0,8.977,7.277,16.254,16.254,16.254h19.904c7.212,0,13.059,5.847,13.059,13.059
			v70.457c0,17.31,14.033,31.343,31.343,31.343h13.58"/>
		<g>
			<path style="fill:#00B8D4;" d="M346.669,277.579c-7.916-9.228-19.464-14.532-31.612-14.532h-29.484h-52.18h-29.484
				c-12.148,0-23.696,5.304-31.612,14.532c-2.256,2.63-3.442,6.016-3.442,9.48v13.628c0,1.409,1.142,2.552,2.551,2.552h36.922
				c1.409,0,2.551-1.142,2.551-2.552V294.1c0-4.874-0.996-9.697-2.926-14.173h25.439h52.18h25.439
				c-1.93,4.476-2.926,9.299-2.926,14.173v6.587c0,1.409,1.142,2.552,2.552,2.552h36.922c1.409,0,2.551-1.142,2.551-2.552v-13.628
				C350.11,283.594,348.925,280.208,346.669,277.579z"/>
			<g>
				<path style="fill:#00B8D4;" d="M346.486,277.366c-7.91-9.097-19.374-14.32-31.429-14.32h-29.484h-52.18h-29.484
					c-12.055,0-23.519,5.223-31.429,14.32c-2.337,2.688-3.625,6.13-3.625,9.693v3.992c0-3.562,1.287-7.004,3.625-9.692
					c7.91-9.097,19.374-14.32,31.429-14.32h29.484h52.18h29.484c12.055,0,23.519,5.223,31.429,14.32
					c2.337,2.688,3.625,6.13,3.625,9.692v-3.992C350.11,283.497,348.823,280.055,346.486,277.366z"/>
			</g>
			<path style="fill:#00B8D4;" d="M285.41,303.239h-25.928h-25.928c0,0-43.866,17.234-43.866,74.667h69.794h69.794
				C329.276,320.473,285.41,303.239,285.41,303.239z"/>
			<path style="fill:#00B8D4;" d="M285.41,303.239h-6.949c0,0,43.866,17.234,43.866,74.667h6.949
				C329.276,320.473,285.41,303.239,285.41,303.239z"/>
			<path style="fill:#00B8D4;" d="M296.423,317.018c0-2.772-0.315-5.469-0.894-8.066c-5.861-4.038-10.118-5.713-10.118-5.713
				h-25.928h-25.928c0,0-4.258,1.674-10.118,5.713c-0.579,2.598-0.894,5.294-0.894,8.066c0,20.402,16.539,36.941,36.941,36.941
				S296.423,337.42,296.423,317.018z"/>
			<rect x="189.688" y="377.905" style="fill:#00899E;" width="139.588" height="14.142"/>
			<rect x="322.327" y="377.905" style="fill:#00899E;" width="6.949" height="14.142"/>
			<circle style="fill:#E0E0E0;" cx="259.482" cy="311.949" r="36.941"/>
			<circle style="fill:#E0E0E0;" cx="259.482" cy="314.357" r="17.535"/>
			<path style="fill:#E0E0E0;" d="M259.482,278.117c19.88,0,36.086,15.706,36.901,35.386c0.021-0.516,0.039-1.033,0.039-1.555
				c0-20.402-16.539-36.941-36.941-36.941s-36.941,16.539-36.941,36.941c0,0.521,0.018,1.038,0.039,1.555
				C223.396,293.823,239.602,278.117,259.482,278.117z"/>
			
				<ellipse transform="matrix(0.1508 -0.9886 0.9886 0.1508 -88.0325 521.4158)" style="fill:#FF4081;" cx="259.482" cy="311.949" rx="17.535" ry="17.535"/>
			<path style="fill:#FF89B1;" d="M259.482,297.096c9.232,0,16.78,7.138,17.467,16.194c0.034-0.444,0.068-0.888,0.068-1.341
				c0-9.684-7.851-17.535-17.535-17.535c-9.684,0-17.535,7.851-17.535,17.535c0,0.453,0.034,0.897,0.068,1.341
				C242.702,304.234,250.25,297.096,259.482,297.096z"/>
			<circle style="fill:#263238;" cx="259.482" cy="284.822" r="5.069"/>
			<path style="fill:#263238;" d="M264.551,339.075c0,2.8-2.27,5.069-5.069,5.069c-2.8,0-5.069-2.27-5.069-5.069
				c0-2.8,2.27-5.069,5.069-5.069C262.282,334.006,264.551,336.275,264.551,339.075z"/>
			<path style="fill:#263238;" d="M243.885,289.183c1.98,1.98,1.98,5.189,0,7.169c-1.98,1.98-5.189,1.98-7.169,0
				c-1.98-1.98-1.98-5.189,0-7.169C238.696,287.203,241.906,287.203,243.885,289.183z"/>
			<path style="fill:#263238;" d="M282.248,327.545c1.98,1.98,1.98,5.189,0,7.169c-1.98,1.98-5.189,1.98-7.169,0
				c-1.98-1.98-1.98-5.189,0-7.169C277.059,325.566,280.268,325.566,282.248,327.545z"/>
			<path style="fill:#263238;" d="M232.356,306.879c2.8,0,5.069,2.27,5.069,5.069c0,2.8-2.27,5.069-5.069,5.069
				c-2.8,0-5.069-2.27-5.069-5.069C227.286,309.149,229.556,306.879,232.356,306.879z"/>
			<path style="fill:#263238;" d="M286.609,306.879c2.8,0,5.069,2.27,5.069,5.069c0,2.8-2.27,5.069-5.069,5.069
				c-2.8,0-5.069-2.27-5.069-5.069C281.539,309.149,283.809,306.879,286.609,306.879z"/>
			<path style="fill:#263238;" d="M236.716,327.545c1.98-1.98,5.189-1.98,7.169,0c1.98,1.98,1.98,5.189,0,7.169
				c-1.98,1.98-5.189,1.98-7.169,0C234.737,332.735,234.737,329.525,236.716,327.545z"/>
			<path style="fill:#263238;" d="M275.079,289.183c1.98-1.98,5.189-1.98,7.169,0c1.98,1.98,1.98,5.189,0,7.169
				c-1.98,1.98-5.189,1.98-7.169,0C273.099,294.372,273.099,291.163,275.079,289.183z"/>
		</g>
		<rect x="139.518" y="392.048" style="fill:#FF6D00;" width="239.928" height="9.3"/>
		<polygon style="fill:#00B8D4;" points="245.37,194.117 197.646,168.415 197.646,214.678 245.37,214.678 293.094,214.678 
			293.094,168.415 		"/>
		<polygon style="fill:#FF4081;" points="197.646,168.415 245.37,139.001 293.094,168.415 245.37,194.117 		"/>
		<polygon style="fill:#E33973;" points="197.646,168.415 293.094,168.415 245.37,194.117 		"/>
		<polygon style="fill:#EEEEEE;" points="282.688,125.293 245.37,125.293 208.052,125.293 208.052,174.019 245.37,194.117 
			245.37,194.117 245.37,194.117 245.37,194.117 245.37,194.117 282.688,174.019 		"/>
		<line style="fill:none;stroke:#263238;stroke-miterlimit:10;" x1="224.741" y1="137.535" x2="273.868" y2="137.535"/>
		<line style="fill:none;stroke:#263238;stroke-miterlimit:10;" x1="216.873" y1="142.24" x2="273.868" y2="142.24"/>
		<line style="fill:none;stroke:#263238;stroke-miterlimit:10;" x1="216.873" y1="146.944" x2="273.868" y2="146.944"/>
		<line style="fill:none;stroke:#263238;stroke-miterlimit:10;" x1="216.873" y1="151.649" x2="273.868" y2="151.649"/>
		<line style="fill:none;stroke:#263238;stroke-miterlimit:10;" x1="216.873" y1="156.353" x2="273.868" y2="156.353"/>
		<line style="fill:none;stroke:#263238;stroke-miterlimit:10;" x1="216.873" y1="161.058" x2="273.868" y2="161.058"/>
		<line style="fill:none;stroke:#263238;stroke-miterlimit:10;" x1="216.873" y1="165.762" x2="273.868" y2="165.762"/>
		<line style="fill:none;stroke:#263238;stroke-miterlimit:10;" x1="216.873" y1="170.467" x2="261.111" y2="170.467"/>
		
			<ellipse transform="matrix(0.2269 -0.9739 0.9739 0.2269 127.7089 531.3168)" style="fill:#FF4081;" cx="398.536" cy="185.213" rx="28.86" ry="28.86"/>
		<text transform="matrix(1 0 0 1 383.335 193.031)" style="fill:#FFFFFF; font-family:'Roboto-Bold'; font-size:32.9152px;">@</text>
		<g>
			<g>
				
					<ellipse transform="matrix(0.1654 -0.9862 0.9862 0.1654 -58.8482 248.6741)" style="fill:none;stroke:#00B8D4;stroke-width:4;stroke-miterlimit:10;" cx="117.501" cy="159.106" rx="52.654" ry="52.654"/>
				
					<ellipse style="fill:none;stroke:#00B8D4;stroke-width:4;stroke-miterlimit:10;" cx="117.501" cy="159.106" rx="32.092" ry="52.654"/>
				
					<line style="fill:none;stroke:#00B8D4;stroke-width:4;stroke-miterlimit:10;" x1="117.501" y1="106.452" x2="117.501" y2="211.76"/>
				
					<line style="fill:none;stroke:#00B8D4;stroke-width:4;stroke-miterlimit:10;" x1="64.847" y1="159.107" x2="170.155" y2="159.107"/>
			</g>
			<g>
				
					<ellipse transform="matrix(0.2274 -0.9738 0.9738 0.2274 2.5756 248.0475)" style="fill:#FF4081;" cx="157.616" cy="122.401" rx="23.749" ry="23.749"/>
				<g>
					<path style="fill:none;stroke:#FFFFFF;stroke-width:2;stroke-linecap:round;stroke-miterlimit:10;" d="M143.639,113.198
						c2.966-4.413,8.004-7.317,13.721-7.317c9.124,0,16.52,7.396,16.52,16.52c0,9.124-7.396,16.52-16.52,16.52
						c-7.709,0-14.185-5.281-16.008-12.423"/>
					
						<polyline style="fill:none;stroke:#FFFFFF;stroke-width:2;stroke-linecap:round;stroke-linejoin:round;stroke-miterlimit:10;" points="
						142.893,108.921 143.639,113.198 148.337,112.908 					"/>
					
						<text transform="matrix(1 0 0 1 145.9214 126.3098)" style="fill:#FFFFFF; font-family:'Montserrat-SemiBold'; font-size:12.1804px;"></text>
				</g>
			</g>
		</g>
		<g>
			<path style="fill:#00B8D4;" d="M125.452,350.198H45.365c-1.085,0-1.964-0.879-1.964-1.964v-49.111
				c0-1.085,0.879-1.964,1.964-1.964h80.087c1.085,0,1.964,0.879,1.964,1.964v49.111
				C127.416,349.318,126.537,350.198,125.452,350.198z"/>
			<path style="fill:#EEEEEE;" d="M115.051,341.415H34.964c-1.085,0-1.964-0.879-1.964-1.964V290.34
				c0-1.085,0.879-1.964,1.964-1.964h80.087c1.085,0,1.964,0.879,1.964,1.964v49.111
				C117.014,340.535,116.135,341.415,115.051,341.415z"/>
			<g>
				<g>
					<circle style="fill:#FF4081;" cx="52.78" cy="307.314" r="12.553"/>
					<g>
						<circle style="fill:#EEEEEE;" cx="52.78" cy="302.972" r="4.207"/>
						<path style="fill:#EEEEEE;" d="M52.78,308.129c-6.514,0-5.564,7.735-5.564,7.735h5.564h5.564
							C58.344,315.864,59.294,308.129,52.78,308.129z"/>
					</g>
				</g>
				<line style="fill:none;stroke:#263238;stroke-miterlimit:10;" x1="72.332" y1="299.484" x2="109.787" y2="299.484"/>
				<line style="fill:none;stroke:#263238;stroke-miterlimit:10;" x1="72.332" y1="306.155" x2="109.787" y2="306.155"/>
				<line style="fill:none;stroke:#263238;stroke-miterlimit:10;" x1="72.332" y1="312.824" x2="109.787" y2="312.824"/>
				<line style="fill:none;stroke:#263238;stroke-miterlimit:10;" x1="72.332" y1="319.495" x2="109.787" y2="319.495"/>
				<line style="fill:none;stroke:#263238;stroke-miterlimit:10;" x1="40.227" y1="326.164" x2="109.787" y2="326.164"/>
				<line style="fill:none;stroke:#263238;stroke-miterlimit:10;" x1="40.227" y1="332.835" x2="109.787" y2="332.835"/>
			</g>
		</g>
		<g>
			<g>
				<path style="fill:#FF4081;" d="M358.265,360.747h68.102c6.052,0,10.959-4.906,10.959-10.959v-33.617
					c0-6.052-4.906-10.959-10.959-10.959h-68.102c-6.052,0-10.959,4.906-10.959,10.959v33.617
					C347.306,355.841,352.212,360.747,358.265,360.747z"/>
				<polygon style="fill:#FF4081;" points="372.141,360.747 358.027,375.584 359.203,360.747 				"/>
			</g>
			<g>
				<path style="fill:#EEEEEE;" d="M456.041,345.62h-68.102c-6.052,0-10.959-4.906-10.959-10.959v-33.617
					c0-6.052,4.906-10.959,10.959-10.959h68.102c6.052,0,10.959,4.906,10.959,10.959v33.617
					C467,340.713,462.094,345.62,456.041,345.62z"/>
				<polygon style="fill:#EEEEEE;" points="442.165,345.62 456.279,360.457 455.103,345.62 				"/>
				<circle style="fill:#263238;" cx="399.644" cy="317.853" r="4.705"/>
				<circle style="fill:#263238;" cx="421.99" cy="317.853" r="4.705"/>
				<path style="fill:#263238;" d="M449.041,317.853c0,2.598-2.106,4.705-4.705,4.705c-2.598,0-4.705-2.106-4.705-4.705
					s2.106-4.705,4.705-4.705C446.935,313.148,449.041,315.254,449.041,317.853z"/>
			</g>
		</g>
		<path style="fill:none;stroke:#FFFFFF;stroke-width:2;stroke-miterlimit:10;" d="M307.484,129.925
			c0,1.997-1.619,3.615-3.615,3.615c-1.997,0-3.615-1.619-3.615-3.615c0-1.997,1.619-3.615,3.615-3.615
			C305.865,126.31,307.484,127.928,307.484,129.925z"/>
		<path style="fill:none;stroke:#FFFFFF;stroke-width:2;stroke-miterlimit:10;" d="M89.024,271.393c0,1.997-1.619,3.615-3.615,3.615
			c-1.997,0-3.615-1.619-3.615-3.615c0-1.997,1.619-3.615,3.615-3.615C87.405,267.777,89.024,269.396,89.024,271.393z"/>
		<path style="fill:none;stroke:#FFFFFF;stroke-width:2;stroke-miterlimit:10;" d="M179.506,208.145
			c0,1.997-1.619,3.615-3.615,3.615c-1.997,0-3.615-1.619-3.615-3.615s1.619-3.615,3.615-3.615
			C177.887,204.53,179.506,206.149,179.506,208.145z"/>
		<path style="fill:none;stroke:#FFFFFF;stroke-width:2;stroke-miterlimit:10;" d="M447.952,214.074
			c0,1.997-1.619,3.615-3.615,3.615c-1.997,0-3.615-1.619-3.615-3.615c0-1.997,1.619-3.615,3.615-3.615
			C446.333,210.458,447.952,212.077,447.952,214.074z"/>
		<path style="fill:none;stroke:#FFFFFF;stroke-width:2;stroke-miterlimit:10;" d="M386.951,277.049
			c0,1.997-1.619,3.615-3.615,3.615c-1.997,0-3.615-1.619-3.615-3.615c0-1.997,1.619-3.615,3.615-3.615
			C385.332,273.434,386.951,275.052,386.951,277.049z"/>
		<path style="fill:none;stroke:#FFFFFF;stroke-width:2;stroke-miterlimit:10;" d="M173.77,353.959c0,1.997-1.619,3.615-3.615,3.615
			c-1.997,0-3.615-1.619-3.615-3.615c0-1.997,1.619-3.615,3.615-3.615C172.151,350.343,173.77,351.962,173.77,353.959z"/>
	</g>
</g>

</svg>
